<svg width="241" height="39" viewBox="0 0 241 39" fill="none" xmlns="http://www.w3.org/2000/svg">
<path fill-rule="evenodd" clip-rule="evenodd" d="M0.633418 0.504486L1.63454 3.77273L1.30095 21.7899L0.383057 24.5553L9.39 24.4745L7.89321 21.7391L7.80984 13.5775L19.4922 14.0802L22.1627 16.1753L21.6617 8.88451L18.491 10.5606L7.80984 11.0635L7.72635 3.77273L20.1599 3.85644L27.8368 6.45426L27.5866 0.504486H0.633418Z" fill="#FFFFFF"/>
<path fill-rule="evenodd" clip-rule="evenodd" d="M31.9845 0.421356L33.3173 3.16926L33.4009 20.3484L32.0103 24.486L67.5304 24.3708L67.7806 17.4155L66.0283 19.1752L61.8561 20.1809L39.4925 20.2647L39.8264 3.58825L41.1614 0.462757L31.9845 0.421356Z" fill="#FFFFFF"/>
<path fill-rule="evenodd" clip-rule="evenodd" d="M67.307 8.59148C67.307 3.98638 61.9085 0.253265 55.2492 0.253265C48.5896 0.253265 43.1912 3.98638 43.1912 8.59148C43.1912 13.1965 48.5896 16.9296 55.2492 16.9296C61.9085 16.9296 67.307 13.1965 67.307 8.59148ZM59.9727 6.17996C58.5002 3.27119 55.1918 1.99289 52.5831 3.32474C49.9743 4.65658 49.0532 8.09417 50.5258 11.0029C51.9984 13.9116 55.3066 15.1899 57.9152 13.858C60.524 12.5262 61.4451 9.08859 59.9727 6.17996Z" fill="#FFFFFF"/>
<path fill-rule="evenodd" clip-rule="evenodd" d="M71.1454 0.58834L72.3972 2.93465L72.6475 21.4549V24.371H78.6557V16.5943L86.6664 16.4267L93.0264 24.4103L100.84 24.371L93.37 16.2236C99.0444 14.1567 101.503 11.88 101.67 8.72358C101.866 3.21713 99.2375 0.563782 95.3449 0.504486L71.1454 0.58834ZM79 12.7153V4.25142L91.6004 4C94.2429 4.22344 96.0508 5.95524 95.7726 8.94426C95.8005 10.9834 95.1608 11.8494 92.6018 12.8828L79 12.7153Z" fill="#FFFFFF"/>
<path fill-rule="evenodd" clip-rule="evenodd" d="M108.947 3.10235V21.2871L107.779 24.4715L135.238 24.3275L135.316 18.4378L133.897 20.1139L115.289 21.0356L115.372 13.5775L126.137 13.7451L128.974 15.6724V9.55493L124.968 11.1472L115.372 11.3987L115.205 3.68887L126.304 3.85644L134.648 6.37055L134.565 0.336823L106.207 0.472031L108.947 3.10235Z" fill="#FFFFFF"/>
<path fill-rule="evenodd" clip-rule="evenodd" d="M141.073 24.5838L140.74 0.586669L147.165 0.670383L165.273 17.7658V2.2626L163.157 0.55768L170.448 0.445526L168.611 2.01131L168.527 24.0508L162.186 24.3023L145.413 8.0448L143.577 8.12875L144.189 24.444L141.073 24.5838Z" fill="#FFFFFF"/>
<path fill-rule="evenodd" clip-rule="evenodd" d="M174.147 0.25129L173.534 6.62197L177.623 4.86209L191.475 3.77273L173.701 20.7843L173.676 24.8706L198.234 24.4715L201.406 25.1425L201.321 19.0245L198.234 20.4492L182.63 21.0356L200.737 3.77273L201.017 0L174.147 0.25129Z" fill="#FFFFFF"/>
<path fill-rule="evenodd" clip-rule="evenodd" d="M219.012 0.420563L204.825 24.5017L213.866 24.46L212.616 20.6261C212.448 19.0691 213.674 17.1761 215.123 16.4587L226.439 16.7619L230.505 24.596L239.566 24.5845L225.855 0.588361L219.012 0.420563ZM220.014 3.85645L215.09 13.4098L224.77 13.326L220.014 3.85645Z" fill="#FFFFFF"/>
<path fill-rule="evenodd" clip-rule="evenodd" d="M0 38.5676V30.7236H2.9454C3.46903 30.7236 3.86175 30.7455 4.13451 30.8002C4.52723 30.8659 4.84355 30.9865 5.10536 31.1617C5.36717 31.3481 5.57449 31.6 5.72716 31.9176C5.8908 32.2463 5.96721 32.597 5.96721 32.9914C5.96721 33.6487 5.75989 34.2183 5.33445 34.6784C4.909 35.1385 4.14547 35.3686 3.04358 35.3686H1.03644V38.5676H0ZM1.03644 34.4483H3.05453C3.72002 34.4483 4.19997 34.3279 4.48355 34.0759C4.75632 33.8239 4.89818 33.4733 4.89818 33.0132C4.89818 32.6956 4.82177 32.4106 4.64719 32.1806C4.48355 31.9396 4.26542 31.7862 4.00361 31.7096C3.82902 31.6657 3.50175 31.6439 3.03276 31.6439H1.03644V34.4483Z" fill="#FFFFFF"/>
<path fill-rule="evenodd" clip-rule="evenodd" d="M13.6418 38.5676V30.7236H19.2817V31.6439H14.6781V34.0539H18.9871V34.9742H14.6781V37.6473H19.4672V38.5676H13.6418Z" fill="#FFFFFF"/>
<path fill-rule="evenodd" clip-rule="evenodd" d="M27.2619 38.5676V30.7236H30.72C31.4182 30.7236 31.9526 30.7893 32.3126 30.9317C32.6726 31.0741 32.9672 31.3261 33.1745 31.6767C33.3926 32.0382 33.5018 32.4326 33.5018 32.8599C33.5018 33.4186 33.3272 33.8896 32.9672 34.2731C32.6072 34.6455 32.0508 34.8866 31.3091 34.9962C31.5818 35.1276 31.789 35.2591 31.9309 35.3906C32.2254 35.6644 32.52 36.015 32.7818 36.4313L34.1345 38.5676H32.8472L31.8109 36.9353C31.5054 36.4641 31.2654 36.1026 31.069 35.8507C30.8727 35.5986 30.6982 35.4234 30.5454 35.3248C30.3927 35.2262 30.2291 35.1605 30.0654 35.1166C29.9563 35.0948 29.76 35.0838 29.4981 35.0838H28.2982V38.5676H27.2619ZM28.2982 34.1854H30.5127C30.9927 34.1854 31.3527 34.1307 31.6254 34.0321C31.8872 33.9445 32.0945 33.7801 32.2254 33.5609C32.3673 33.3529 32.4327 33.1118 32.4327 32.8599C32.4327 32.4874 32.3018 32.1806 32.029 31.9505C31.7672 31.7096 31.3418 31.589 30.7637 31.589H28.2982V34.1854Z" fill="#FFFFFF"/>
<path fill-rule="evenodd" clip-rule="evenodd" d="M41.1238 36.1793L42.0946 36.0916C42.1383 36.486 42.2473 36.8038 42.4219 37.0667C42.5855 37.3186 42.8474 37.5158 43.2073 37.6802C43.5564 37.8335 43.9601 37.9102 44.3965 37.9102C44.8 37.9102 45.1382 37.8555 45.4437 37.7349C45.7491 37.6144 45.9673 37.4501 46.12 37.2419C46.2619 37.0339 46.3382 36.8146 46.3382 36.5737C46.3382 36.3327 46.2727 36.1136 46.131 35.9273C45.9891 35.7521 45.7491 35.5986 45.4218 35.4672C45.2146 35.3906 44.7455 35.2591 44.0365 35.0838C43.3165 34.9084 42.8146 34.7551 42.5201 34.6018C42.1491 34.4046 41.8765 34.1525 41.691 33.8677C41.5055 33.5719 41.4183 33.2433 41.4183 32.8927C41.4183 32.4874 41.5273 32.1148 41.7564 31.7753C41.9747 31.4357 42.3019 31.1727 42.7382 30.9865C43.1637 30.8112 43.6437 30.7236 44.1674 30.7236C44.7455 30.7236 45.2582 30.8112 45.6946 31.0084C46.1418 31.1946 46.48 31.4685 46.7201 31.83C46.96 32.1916 47.0801 32.6078 47.1018 33.0679L46.1091 33.1447C46.0546 32.6517 45.88 32.2792 45.5746 32.0272C45.2582 31.7643 44.811 31.6438 44.2109 31.6438C43.5783 31.6438 43.1309 31.7533 42.8364 31.9834C42.5528 32.2134 42.4109 32.4984 42.4109 32.816C42.4109 33.1008 42.5091 33.3309 42.7164 33.5172C42.9128 33.6924 43.4364 33.8896 44.2764 34.0759C45.1165 34.2621 45.6946 34.4374 46.0001 34.5798C46.4583 34.788 46.7963 35.0509 47.0037 35.3686C47.2218 35.6972 47.3309 36.0697 47.3309 36.486C47.3309 36.9024 47.211 37.2968 46.9709 37.6583C46.7418 38.0307 46.3928 38.3156 45.9564 38.5237C45.5092 38.7319 45.0073 38.8305 44.451 38.8305C43.7419 38.8305 43.1528 38.7319 42.6728 38.5237C42.1928 38.3156 41.8219 37.9978 41.5492 37.5816C41.2765 37.1762 41.1346 36.7052 41.1238 36.1793Z" fill="#FFFFFF"/>
<path fill-rule="evenodd" clip-rule="evenodd" d="M55.2567 38.5676V30.7236H56.2929V38.5676H55.2567Z" fill="#FFFFFF"/>
<path fill-rule="evenodd" clip-rule="evenodd" d="M63.5947 38.5676L66.5946 30.7236H67.7292L70.9146 38.5676H69.7364L68.831 36.1902H65.5474L64.6965 38.5676H63.5947ZM65.8529 35.3467H68.5146L67.6964 33.1665C67.4455 32.5092 67.2601 31.9615 67.1401 31.5343C67.031 32.0491 66.8892 32.5421 66.7038 33.0461L65.8529 35.3467Z" fill="#FFFFFF"/>
<path fill-rule="evenodd" clip-rule="evenodd" d="M78.0657 38.5676V30.7236H79.1237L83.2255 36.8804V30.7236H84.2183V38.5676H83.1601L79.0583 32.4106V38.5676H78.0657Z" fill="#FFFFFF"/>
<path fill-rule="evenodd" clip-rule="evenodd" d="M91.4368 38.5676L94.4367 30.7236H95.5712L98.7566 38.5676H97.5785L96.673 36.1902H93.3894L92.5385 38.5676H91.4368ZM93.6949 35.3467H96.3566L95.5384 33.1665C95.2876 32.5092 95.1022 31.9615 94.9821 31.5343C94.8731 32.0491 94.7312 32.5421 94.5458 33.0461L93.6949 35.3467Z" fill="#FFFFFF"/>
<path fill-rule="evenodd" clip-rule="evenodd" d="M105.58 36.1793L106.551 36.0916C106.595 36.486 106.704 36.8038 106.879 37.0667C107.042 37.3186 107.304 37.5158 107.664 37.6802C108.013 37.8335 108.417 37.9102 108.853 37.9102C109.257 37.9102 109.595 37.8555 109.9 37.7349C110.206 37.6144 110.424 37.4501 110.577 37.2419C110.719 37.0339 110.795 36.8146 110.795 36.5737C110.795 36.3327 110.729 36.1136 110.588 35.9273C110.446 35.7521 110.206 35.5986 109.878 35.4672C109.671 35.3906 109.202 35.2591 108.493 35.0838C107.773 34.9084 107.271 34.7551 106.977 34.6018C106.606 34.4046 106.333 34.1525 106.148 33.8677C105.962 33.5719 105.875 33.2433 105.875 32.8927C105.875 32.4874 105.984 32.1148 106.213 31.7753C106.431 31.4357 106.759 31.1727 107.195 30.9865C107.62 30.8112 108.1 30.7236 108.624 30.7236C109.202 30.7236 109.715 30.8112 110.151 31.0084C110.598 31.1946 110.937 31.4685 111.177 31.83C111.417 32.1916 111.537 32.6078 111.558 33.0679L110.566 33.1447C110.511 32.6517 110.337 32.2792 110.031 32.0272C109.715 31.7643 109.268 31.6438 108.668 31.6438C108.035 31.6438 107.588 31.7533 107.293 31.9834C107.009 32.2134 106.868 32.4984 106.868 32.816C106.868 33.1008 106.966 33.3309 107.173 33.5172C107.369 33.6924 107.893 33.8896 108.733 34.0759C109.573 34.2621 110.151 34.4374 110.457 34.5798C110.915 34.788 111.253 35.0509 111.46 35.3686C111.678 35.6972 111.788 36.0697 111.788 36.486C111.788 36.9024 111.668 37.2968 111.428 37.6583C111.198 38.0307 110.849 38.3156 110.413 38.5237C109.966 38.7319 109.464 38.8305 108.908 38.8305C108.199 38.8305 107.609 38.7319 107.129 38.5237C106.649 38.3156 106.279 37.9978 106.006 37.5816C105.733 37.1762 105.591 36.7052 105.58 36.1793Z" fill="#FFFFFF"/>
<path fill-rule="evenodd" clip-rule="evenodd" d="M122.591 38.5676V30.7236H128.231V31.6439H123.628V34.0539H127.937V34.9742H123.628V37.6473H128.417V38.5676H122.591Z" fill="#FFFFFF"/>
<path fill-rule="evenodd" clip-rule="evenodd" d="M146.784 35.9493L147.82 36.2122C147.602 37.0667 147.22 37.713 146.653 38.1622C146.097 38.6004 145.409 38.8305 144.591 38.8305C143.751 38.8305 143.064 38.6551 142.54 38.3156C142.017 37.965 141.613 37.472 141.34 36.8146C141.068 36.1683 140.926 35.4672 140.926 34.7222C140.926 33.9006 141.079 33.1885 141.395 32.586C141.7 31.9725 142.148 31.5124 142.715 31.1946C143.293 30.8769 143.926 30.7236 144.613 30.7236C145.388 30.7236 146.042 30.9208 146.577 31.326C147.111 31.7204 147.482 32.2792 147.689 33.0022L146.675 33.2433C146.5 32.6736 146.228 32.2573 145.889 32.0054C145.54 31.7424 145.115 31.611 144.591 31.611C143.991 31.611 143.489 31.7533 143.086 32.0382C142.682 32.334 142.399 32.7174 142.246 33.2104C142.082 33.6924 141.995 34.1964 141.995 34.7112C141.995 35.3796 142.093 35.9601 142.29 36.4531C142.475 36.9571 142.78 37.3296 143.184 37.5706C143.588 37.8226 144.035 37.9431 144.504 37.9431C145.082 37.9431 145.573 37.7788 145.977 37.4391C146.369 37.0996 146.642 36.6066 146.784 35.9493Z" fill="#FFFFFF"/>
<path fill-rule="evenodd" clip-rule="evenodd" d="M155.126 34.8756C155.126 33.5829 155.475 32.5641 156.173 31.83C156.871 31.0851 157.766 30.7236 158.868 30.7236C159.588 30.7236 160.242 30.8988 160.82 31.2385C161.398 31.589 161.835 32.0711 162.14 32.6846C162.446 33.309 162.598 34.0102 162.598 34.788C162.598 35.5877 162.435 36.2998 162.118 36.9243C161.802 37.5487 161.344 38.0198 160.766 38.3485C160.177 38.6661 159.544 38.8305 158.868 38.8305C158.126 38.8305 157.471 38.6551 156.893 38.2936C156.315 37.9431 155.868 37.4501 155.573 36.8367C155.279 36.2231 155.126 35.5657 155.126 34.8756ZM156.195 34.8976C156.195 35.8397 156.446 36.5846 156.959 37.1324C157.46 37.6692 158.093 37.9431 158.857 37.9431C159.631 37.9431 160.275 37.6692 160.777 37.1214C161.279 36.5737 161.529 35.7958 161.529 34.788C161.529 34.1525 161.42 33.5938 161.213 33.1228C160.995 32.6407 160.678 32.2792 160.264 32.0162C159.849 31.7533 159.391 31.6218 158.879 31.6218C158.148 31.6218 157.515 31.8739 156.991 32.3778C156.457 32.8817 156.195 33.7253 156.195 34.8976Z" fill="#FFFFFF"/>
<path fill-rule="evenodd" clip-rule="evenodd" d="M170.293 38.5676V30.7236H173.751C174.449 30.7236 174.984 30.7893 175.344 30.9317C175.704 31.0741 175.998 31.3261 176.206 31.6767C176.424 32.0382 176.533 32.4326 176.533 32.8599C176.533 33.4186 176.358 33.8896 175.998 34.2731C175.638 34.6455 175.082 34.8866 174.34 34.9962C174.613 35.1276 174.82 35.2591 174.962 35.3906C175.257 35.6644 175.551 36.015 175.813 36.4313L177.166 38.5676H175.878L174.842 36.9353C174.537 36.4641 174.296 36.1026 174.1 35.8507C173.904 35.5986 173.729 35.4234 173.576 35.3248C173.424 35.2262 173.26 35.1605 173.097 35.1166C172.987 35.0948 172.791 35.0838 172.529 35.0838H171.329V38.5676H170.293ZM171.329 34.1854H173.544C174.024 34.1854 174.384 34.1307 174.656 34.0321C174.918 33.9445 175.126 33.7801 175.257 33.5609C175.398 33.3529 175.464 33.1118 175.464 32.8599C175.464 32.4874 175.333 32.1806 175.06 31.9505C174.798 31.7096 174.373 31.589 173.795 31.589H171.329V34.1854Z" fill="#FFFFFF"/>
<path fill-rule="evenodd" clip-rule="evenodd" d="M186.282 38.5676V31.6439H183.708V30.7236H189.893V31.6439H187.318V38.5676H186.282Z" fill="#FFFFFF"/>
<path fill-rule="evenodd" clip-rule="evenodd" d="M197.479 38.5676V30.7236H198.515V38.5676H197.479Z" fill="#FFFFFF"/>
<path fill-rule="evenodd" clip-rule="evenodd" d="M206.668 38.5676V30.7236H207.726L211.828 36.8804V30.7236H212.82V38.5676H211.762L207.66 32.4106V38.5676H206.668Z" fill="#FFFFFF"/>
<path fill-rule="evenodd" clip-rule="evenodd" d="M220.039 38.5676L223.039 30.7236H224.173L227.359 38.5676H226.18L225.275 36.1902H221.991L221.14 38.5676H220.039ZM222.297 35.3467H224.959L224.14 33.1665C223.89 32.5092 223.704 31.9615 223.584 31.5343C223.475 32.0491 223.333 32.5421 223.148 33.0461L222.297 35.3467Z" fill="#FFFFFF"/>
<path fill-rule="evenodd" clip-rule="evenodd" d="M234.182 36.1793L235.153 36.0916C235.197 36.486 235.306 36.8038 235.48 37.0667C235.644 37.3186 235.906 37.5158 236.266 37.6802C236.615 37.8335 237.019 37.9102 237.455 37.9102C237.859 37.9102 238.197 37.8555 238.502 37.7349C238.808 37.6144 239.026 37.4501 239.179 37.2419C239.32 37.0339 239.397 36.8146 239.397 36.5737C239.397 36.3327 239.331 36.1136 239.19 35.9273C239.048 35.7521 238.808 35.5986 238.48 35.4672C238.273 35.3906 237.804 35.2591 237.095 35.0838C236.375 34.9084 235.873 34.7551 235.579 34.6018C235.208 34.4046 234.935 34.1525 234.75 33.8677C234.564 33.5719 234.477 33.2433 234.477 32.8927C234.477 32.4874 234.586 32.1148 234.815 31.7753C235.033 31.4357 235.361 31.1727 235.797 30.9865C236.222 30.8112 236.702 30.7236 237.226 30.7236C237.804 30.7236 238.317 30.8112 238.753 31.0084C239.2 31.1946 239.539 31.4685 239.779 31.83C240.019 32.1916 240.139 32.6078 240.16 33.0679L239.168 33.1447C239.113 32.6517 238.939 32.2792 238.633 32.0272C238.317 31.7643 237.87 31.6438 237.269 31.6438C236.637 31.6438 236.189 31.7533 235.895 31.9834C235.611 32.2134 235.47 32.4984 235.47 32.816C235.47 33.1008 235.568 33.3309 235.775 33.5172C235.971 33.6924 236.495 33.8896 237.335 34.0759C238.175 34.2621 238.753 34.4374 239.059 34.5798C239.517 34.788 239.855 35.0509 240.062 35.3686C240.28 35.6972 240.389 36.0697 240.389 36.486C240.389 36.9024 240.27 37.2968 240.029 37.6583C239.8 38.0307 239.451 38.3156 239.015 38.5237C238.568 38.7319 238.066 38.8305 237.51 38.8305C236.8 38.8305 236.211 38.7319 235.731 38.5237C235.251 38.3156 234.88 37.9978 234.608 37.5816C234.335 37.1762 234.193 36.7052 234.182 36.1793Z" fill="#FFFFFF"/>
</svg>
